{"title":"5 Days Of War *2011* [DVDRip.XviD-miguel] [ENG]","uid":6471472,"size":1474516488,"categoryP":"video","categoryS":"movies","magnet":"?xt=urn:btih:9ce35051d9301977d4a2219e06ded596a6d18d17&amp;dn=5+Days+Of+War+%2A2011%2A+%5BDVDRip.XviD-miguel%5D+%5BENG%5D&amp;tr=udp%3A%2F%2Ftracker.openbittorrent.com%3A80&amp;tr=udp%3A%2F%2Fopen.demonii.com%3A1337&amp;tr=udp%3A%2F%2Ftracker.coppersurfer.tk%3A6969&amp;tr=udp%3A%2F%2Fexodus.desync.com%3A6969","seeders":1,"leechers":0,"uploader":"miguel1983","files":-1,"time":1308154628,"description":" &lt;a href=&quot;http://img853.imageshack.us/img853/9103/mv5bmtmymjk2ntewmv5bml5.jpg&quot; rel=&quot;nofollow&quot; target=&quot;_NEW&quot;&gt;http://img853.imageshack.us/img853/9103/mv5bmtmymjk2ntewmv5bml5.jpg&lt;/a&gt;\n\nCountry.......: USA\nGenre.........: Drama, Action, War\nDate release..: 13.06.2011 [World]\nDirector......: Renny Harlin\nWriters.......: Mikko Alanne, David Battle\nDuration......: 108 min.\nMore..........: http://www.imdb.com/title/tt1486193\nTrailer.......: http://www.imdb.com/video/screenplay/vi1149213977\nTrailer.......:\n\nPilot :\nA drama set centered around the war between Russia and Georgia, and focused on an American journalist, his cameraman, and a Georgian native who become caught in the crossfire. \n\nCats :\nRupert Friend   \t ...  \tThomas Anders\nVal Kilmer \t... \tDutchman\nAndy Garcia \t... \tPresident of Georgia\nDean Cain \t... \tChris Bailot\nEmmanuelle Chriqui \t... \tTatia\nHeather Graham \t... \tMiriam\nMikko Nousiainen \t... \tDaniil\nRichard Coyle \t... \tSebastian Ganz\nAntje Traue \t... \tZoe\nRade Serbedzija \t... \tCol. Demidov\nMikheil Gomiashvili \t... \tAnton Medoevi\nJohnathon Schaech \t... \tCapt. Rezo Avaliani\nAnna Walton \t... \tKarin Lange\nLuke Albright \t... \tJameson | Satellite Van Technician\nLevan Baidashvili \t... \tKid at wedding \n\nData Technical :\n!!! SAMPLE !!!\nAudio.....: English\nSubtitles.: None\nFormat                           : AVI\nFormat/Info                      : Audio Video Interleave\nFile size                        : 1.37 GiB\nDuration                         : 1h 48mn\nOverall bit rate                 : 1 807 Kbps\nWriting application              : VirtualDubMod 1.5.10.2 (build 2540/release)\nWriting library                  : VirtualDubMod build 2540/release\nVideo\nID                               : 0\nFormat                           : MPEG-4 Visual\nFormat profile                   : Advanced Simple@L5\nFormat settings, BVOP            : Yes\nFormat settings, QPel            : No\nFormat settings, GMC             : No warppoints\nFormat settings, Matrix          : Default (MPEG)\nMuxing mode                      : Packed bitstream\nCodec ID                         : XVID\nCodec ID/Hint                    : XviD\nDuration                         : 1h 48mn\nBit rate                         : 1 414 Kbps\nWidth                            : 704 pixels\nHeight                           : 288 pixels\nDisplay aspect ratio             : 2.40:1\nFrame rate                       : 25.000 fps\nColor space                      : YUV\nChroma subsampling               : 4:2:0\nBit depth                        : 8 bits\nScan type                        : Progressive\nBits/(Pixel*Frame)               : 0.279\nStream size                      : 1.07 GiB (78%)\nWriting library                  : XviD 58\nAudio\nID                               : 1\nFormat                           : AC-3\nFormat/Info                      : Audio Coding 3\nMode extension                   : CM (complete main)\nCodec ID                         : 2000\nDuration                         : 1h 48mn\nBit rate mode                    : Constant\nBit rate                         : 384 Kbps\nChannel(s)                       : 6 channels\nChannel positions                : Front: L C R, Side: L R, LFE\nSampling rate                    : 48.0 KHz\nBit depth                        : 16 bits\nStream size                      : 298 MiB (21%)\nAlignment                        : Split accross interleaves\nInterleave, duration             : 40 ms (1.00 video frame)\nInterleave, preload duration     : 500 ms\n\nScreen : &lt;a href=&quot;\nhttp://img854.imageshack.us/img854/4049/5daysofwar2011s1.jpg&quot; rel=&quot;nofollow&quot; target=&quot;_NEW&quot;&gt;\nhttp://img854.imageshack.us/img854/4049/5daysofwar2011s1.jpg&lt;/a&gt; &lt;a href=&quot;\nhttp://img16.imageshack.us/img16/5374/5daysofwar2011s2.jpg&quot; rel=&quot;nofollow&quot; target=&quot;_NEW&quot;&gt;\nhttp://img16.imageshack.us/img16/5374/5daysofwar2011s2.jpg&lt;/a&gt; &lt;a href=&quot;\nhttp://img32.imageshack.us/img32/5194/5daysofwar2011s3.jpg&quot; rel=&quot;nofollow&quot; target=&quot;_NEW&quot;&gt;\nhttp://img32.imageshack.us/img32/5194/5daysofwar2011s3.jpg&lt;/a&gt; &lt;a href=&quot;\nhttp://img600.imageshack.us/img600/594/5daysofwar2011s4.jpg&quot; rel=&quot;nofollow&quot; target=&quot;_NEW&quot;&gt;\nhttp://img600.imageshack.us/img600/594/5daysofwar2011s4.jpg&lt;/a&gt; &lt;a href=&quot;\nhttp://img849.imageshack.us/img849/3518/5daysofwar2011s5.jpg&quot; rel=&quot;nofollow&quot; target=&quot;_NEW&quot;&gt;\nhttp://img849.imageshack.us/img849/3518/5daysofwar2011s5.jpg&lt;/a&gt;","torrent":{"xt":"urn:btih:9ce35051d9301977d4a2219e06ded596a6d18d17","amp;dn":"5+Days+Of+War+%2A2011%2A+%5BDVDRip.XviD-miguel%5D+%5BENG%5D","amp;tr":["udp%3A%2F%2Ftracker.openbittorrent.com%3A80","udp%3A%2F%2Fopen.demonii.com%3A1337","udp%3A%2F%2Ftracker.coppersurfer.tk%3A6969","udp%3A%2F%2Fexodus.desync.com%3A6969"],"infoHash":"9ce35051d9301977d4a2219e06ded596a6d18d17","infoHashBuffer":{"type":"Buffer","data":[156,227,80,81,217,48,25,119,212,162,33,158,6,222,213,150,166,209,141,23]},"announce":[],"urlList":[]}}